<svg width="16" height="16" viewBox="0 0 16 16" fill="none" xmlns="http://www.w3.org/2000/svg">
<path fill-rule="evenodd" clip-rule="evenodd" d="M7.99998 0.666504C8.36817 0.666504 8.66665 0.964981 8.66665 1.33317V14.6665C8.66665 15.0347 8.36817 15.3332 7.99998 15.3332C7.63179 15.3332 7.33331 15.0347 7.33331 14.6665V1.33317C7.33331 0.964981 7.63179 0.666504 7.99998 0.666504Z" fill="#DCDCDC"/>
<path fill-rule="evenodd" clip-rule="evenodd" d="M2.86192 9.52827C3.12227 9.26792 3.54438 9.26792 3.80473 9.52827L7.99999 13.7235L12.1953 9.52827C12.4556 9.26792 12.8777 9.26792 13.1381 9.52827C13.3984 9.78862 13.3984 10.2107 13.1381 10.4711L8.47139 15.1377C8.21104 15.3981 7.78893 15.3981 7.52858 15.1377L2.86192 10.4711C2.60157 10.2107 2.60157 9.78862 2.86192 9.52827Z" fill="#DCDCDC"/>
</svg>
