<svg width="16" height="16" viewBox="0 0 16 16" fill="none" xmlns="http://www.w3.org/2000/svg">
<path fill-rule="evenodd" clip-rule="evenodd" d="M0 0.666667C0 0.298477 0.298477 0 0.666667 0H12.6667C13.0349 0 13.3333 0.298477 13.3333 0.666667V5.33333C13.3333 5.70152 13.0349 6 12.6667 6C12.2985 6 12 5.70152 12 5.33333V1.33333H1.33333V12.6667H8C8.36819 12.6667 8.66667 12.9651 8.66667 13.3333C8.66667 13.7015 8.36819 14 8 14H0.666667C0.298477 14 0 13.7015 0 13.3333V0.666667Z" fill="#0D6EFD"/>
<path fill-rule="evenodd" clip-rule="evenodd" d="M10.6667 9.0835C11.0349 9.0835 11.3333 9.38197 11.3333 9.75016V13.7419L12.4558 13.3677C12.5927 13.3221 12.7406 13.3221 12.8775 13.3677L14 13.7419V9.75016C14 9.38197 14.2985 9.0835 14.6667 9.0835C15.0349 9.0835 15.3333 9.38197 15.3333 9.75016V14.6668C15.3333 14.8811 15.2303 15.0824 15.0565 15.2077C14.8826 15.333 14.6591 15.3671 14.4558 15.2993L12.6667 14.7029L10.8775 15.2993C10.6742 15.3671 10.4507 15.333 10.2769 15.2077C10.103 15.0824 10 14.8811 10 14.6668V9.75016C10 9.38197 10.2985 9.0835 10.6667 9.0835Z" fill="#0D6EFD"/>
<path fill-rule="evenodd" clip-rule="evenodd" d="M12.6667 5.99984C11.5621 5.99984 10.6667 6.89527 10.6667 7.99984C10.6667 9.10441 11.5621 9.99984 12.6667 9.99984C13.7712 9.99984 14.6667 9.10441 14.6667 7.99984C14.6667 6.89527 13.7712 5.99984 12.6667 5.99984ZM9.33333 7.99984C9.33333 6.15889 10.8257 4.6665 12.6667 4.6665C14.5076 4.6665 16 6.15889 16 7.99984C16 9.84079 14.5076 11.3332 12.6667 11.3332C10.8257 11.3332 9.33333 9.84079 9.33333 7.99984Z" fill="#0D6EFD"/>
<path fill-rule="evenodd" clip-rule="evenodd" d="M2.66667 4.00016C2.66667 3.63197 2.96514 3.3335 3.33333 3.3335H9.33333C9.70152 3.3335 10 3.63197 10 4.00016C10 4.36835 9.70152 4.66683 9.33333 4.66683H3.33333C2.96514 4.66683 2.66667 4.36835 2.66667 4.00016Z" fill="#0D6EFD"/>
<path fill-rule="evenodd" clip-rule="evenodd" d="M2.66667 6.66667C2.66667 6.29848 2.96514 6 3.33333 6H7.33333C7.70152 6 8 6.29848 8 6.66667C8 7.03486 7.70152 7.33333 7.33333 7.33333H3.33333C2.96514 7.33333 2.66667 7.03486 2.66667 6.66667Z" fill="#0D6EFD"/>
<path fill-rule="evenodd" clip-rule="evenodd" d="M2.66667 9.33317C2.66667 8.96498 2.96514 8.6665 3.33333 8.6665H7.33333C7.70152 8.6665 8 8.96498 8 9.33317C8 9.70136 7.70152 9.99984 7.33333 9.99984H3.33333C2.96514 9.99984 2.66667 9.70136 2.66667 9.33317Z" fill="#0D6EFD"/>
</svg>
