<svg width="16" height="16" viewBox="0 0 16 16" fill="none" xmlns="http://www.w3.org/2000/svg">
<path fill-rule="evenodd" clip-rule="evenodd" d="M0.666687 8.00016C0.666687 7.63197 0.965164 7.3335 1.33335 7.3335H14.6667C15.0349 7.3335 15.3334 7.63197 15.3334 8.00016C15.3334 8.36835 15.0349 8.66683 14.6667 8.66683H1.33335C0.965164 8.66683 0.666687 8.36835 0.666687 8.00016Z" fill="#0D6EFD"/>
<path fill-rule="evenodd" clip-rule="evenodd" d="M6.47143 2.86201C6.73177 3.12236 6.73177 3.54447 6.47143 3.80482L2.27616 8.00008L6.47143 12.1953C6.73177 12.4557 6.73177 12.8778 6.47143 13.1382C6.21108 13.3985 5.78897 13.3985 5.52862 13.1382L0.861949 8.47149C0.6016 8.21114 0.6016 7.78903 0.861949 7.52868L5.52862 2.86201C5.78897 2.60166 6.21108 2.60166 6.47143 2.86201Z" fill="#0D6EFD"/>
</svg>
