<svg width="101" height="40" viewBox="0 0 101 40" fill="none" xmlns="http://www.w3.org/2000/svg">
<g clip-path="url(#clip0)">
<path fill-rule="evenodd" clip-rule="evenodd" d="M24.8111 33.3653C24.9149 33.2882 25.0796 33.1875 25.282 33.1875H39.5462C39.9443 33.1875 40.3134 33.417 40.3134 33.8159V34.4258C40.3134 34.5598 40.2763 34.7231 40.2137 34.8774C40.1498 35.0346 40.049 35.2083 39.901 35.35C39.8552 35.3939 39.7703 35.4743 39.6614 35.5776C39.2365 35.9803 38.4453 36.7304 38.1763 37.0118C37.9839 37.213 37.7948 37.354 37.5883 37.4416C37.3806 37.5297 37.1771 37.5544 36.9723 37.5544H20.6875C20.5149 37.5544 20.375 37.4145 20.375 37.2419C20.375 37.0693 20.5149 36.9294 20.6875 36.9294H36.9723C37.1249 36.9294 37.2384 36.9111 37.3443 36.8662C37.4514 36.8208 37.5726 36.7388 37.7246 36.5799C38.0063 36.2851 38.8266 35.5076 39.2464 35.1097C39.349 35.0125 39.4277 34.9379 39.4687 34.8986C39.5374 34.8328 39.5946 34.7406 39.6346 34.6422C39.6758 34.5408 39.6884 34.4586 39.6884 34.4258V33.841C39.6721 33.8312 39.6298 33.8125 39.5462 33.8125H25.282C25.2822 33.8125 25.2824 33.8124 25.282 33.8125C25.2784 33.8132 25.248 33.8193 25.1838 33.867C25.1346 33.9036 25.095 33.9405 25.049 33.9835C25.0274 34.0037 25.0044 34.0252 24.9782 34.0486C24.9428 34.0804 24.8724 34.1431 24.7865 34.2196C24.5587 34.4225 24.2222 34.7222 24.1428 34.7969C24.0674 34.8677 23.9794 34.9331 23.8675 34.978C23.7561 35.0227 23.6393 35.0399 23.5149 35.0399H20.7058C20.5332 35.0399 20.3933 34.9 20.3933 34.7274C20.3933 34.5549 20.5332 34.4149 20.7058 34.4149H23.5149C23.581 34.4149 23.6148 34.406 23.6345 34.398C23.6539 34.3903 23.6776 34.3764 23.7149 34.3413C23.801 34.2605 24.1579 33.9425 24.3859 33.7394C24.4659 33.6681 24.53 33.611 24.561 33.5833C24.5705 33.5748 24.583 33.5631 24.5979 33.5491C24.6501 33.5004 24.7312 33.4247 24.8111 33.3653Z" fill="#141414"/>
<path fill-rule="evenodd" clip-rule="evenodd" d="M26.875 11C26.875 10.8274 27.0149 10.6875 27.1875 10.6875H35.4215C36.1109 10.6875 36.7088 10.9474 37.1323 11.4075C37.554 11.8656 37.7846 12.5016 37.7846 13.2263V33.4806C37.7846 33.6532 37.6447 33.7931 37.4721 33.7931C37.2995 33.7931 37.1596 33.6532 37.1596 33.4806V13.2263C37.1596 12.6338 36.9724 12.1566 36.6725 11.8308C36.3745 11.5071 35.9471 11.3125 35.4215 11.3125H27.1875C27.0149 11.3125 26.875 11.1726 26.875 11Z" fill="#141414"/>
<path fill-rule="evenodd" clip-rule="evenodd" d="M16.3774 33.3653C16.2735 33.2882 16.1088 33.1875 15.9065 33.1875H1.64219C1.24416 33.1875 0.875011 33.417 0.875011 33.8159V34.4258C0.875011 34.5598 0.912083 34.7231 0.974762 34.8774C1.03863 35.0346 1.13945 35.2083 1.28743 35.35C1.33322 35.3939 1.41808 35.4743 1.52703 35.5776C1.9519 35.9803 2.74309 36.7304 3.01211 37.0118C3.20452 37.213 3.39361 37.354 3.60016 37.4416C3.80787 37.5297 4.01134 37.5544 4.21617 37.5544H20.5009C20.6735 37.5544 20.8134 37.4145 20.8134 37.2419C20.8134 37.0693 20.6735 36.9294 20.5009 36.9294H4.21617C4.06352 36.9294 3.95008 36.9111 3.84415 36.8662C3.73706 36.8208 3.6158 36.7388 3.46388 36.5799C3.18209 36.2851 2.36184 35.5076 1.94205 35.1097C1.83945 35.0125 1.76077 34.9379 1.71972 34.8986C1.651 34.8328 1.5938 34.7406 1.55381 34.6422C1.51263 34.5408 1.50001 34.4586 1.50001 34.4258V33.841C1.51636 33.8312 1.55861 33.8125 1.64219 33.8125H15.9065C15.9062 33.8125 15.9061 33.8124 15.9065 33.8125C15.9101 33.8132 15.9404 33.8193 16.0046 33.867C16.0539 33.9036 16.0934 33.9405 16.1394 33.9835C16.161 34.0037 16.1841 34.0252 16.2102 34.0486C16.2456 34.0804 16.316 34.1431 16.4019 34.2196C16.6297 34.4225 16.9662 34.7222 17.0456 34.7969C17.1211 34.8677 17.2091 34.9331 17.3209 34.978C17.4323 35.0227 17.5491 35.0399 17.6735 35.0399H20.4827C20.6552 35.0399 20.7952 34.9 20.7952 34.7274C20.7952 34.5549 20.6552 34.4149 20.4827 34.4149H17.6735C17.6074 34.4149 17.5736 34.406 17.5539 34.398C17.5346 34.3903 17.5109 34.3764 17.4735 34.3413C17.3875 34.2605 17.0305 33.9425 16.8025 33.7394C16.7225 33.6681 16.6584 33.611 16.6274 33.5833C16.6179 33.5748 16.6054 33.5631 16.5905 33.5491C16.5383 33.5004 16.4572 33.4247 16.3774 33.3653Z" fill="#141414"/>
<path fill-rule="evenodd" clip-rule="evenodd" d="M14.3443 11C14.3443 10.8274 14.2044 10.6875 14.0318 10.6875H5.73802C5.04863 10.6875 4.45075 10.9474 4.02721 11.4075C3.60556 11.8656 3.37497 12.5016 3.37497 13.2263V33.4806C3.37497 33.6532 3.51488 33.7931 3.68747 33.7931C3.86006 33.7931 3.99997 33.6532 3.99997 33.4806V13.2263C3.99997 12.6338 4.18718 12.1566 4.48706 11.8308C4.78505 11.5071 5.21244 11.3125 5.73802 11.3125H14.0318C14.2044 11.3125 14.3443 11.1726 14.3443 11Z" fill="#141414"/>
<path fill-rule="evenodd" clip-rule="evenodd" d="M25.7128 13.5C25.7128 13.3274 25.8527 13.1875 26.0253 13.1875H34.6627C35.0016 13.1875 35.2658 13.3097 35.4322 13.5372C35.5854 13.7468 35.6215 14.0003 35.6215 14.2032V30.9641C35.6215 31.1958 35.5392 31.4134 35.3758 31.5732C35.2126 31.7327 34.9912 31.8125 34.7526 31.8125H20.6875C20.5149 31.8125 20.375 31.6726 20.375 31.5C20.375 31.3274 20.5149 31.1875 20.6875 31.1875H34.7526C34.8514 31.1875 34.9082 31.1562 34.9389 31.1263C34.9693 31.0966 34.9965 31.0463 34.9965 30.9641V14.2032C34.9965 14.0596 34.9682 13.9616 34.9277 13.9061C34.9003 13.8687 34.8414 13.8125 34.6627 13.8125H26.0253C25.8527 13.8125 25.7128 13.6726 25.7128 13.5Z" fill="#141414"/>
<path fill-rule="evenodd" clip-rule="evenodd" d="M15.7398 13.5C15.7398 13.3274 15.5998 13.1875 15.4273 13.1875H6.83379C6.49488 13.1875 6.23069 13.3097 6.06431 13.5372C5.9111 13.7468 5.875 14.0003 5.875 14.2032V30.9641C5.875 31.1958 5.95727 31.4134 6.12073 31.5732C6.28392 31.7327 6.50527 31.8125 6.74391 31.8125H20.5921C20.7647 31.8125 20.9046 31.6726 20.9046 31.5C20.9046 31.3274 20.7647 31.1875 20.5921 31.1875H6.74391C6.64513 31.1875 6.58828 31.1562 6.55762 31.1263C6.52723 31.0966 6.5 31.0463 6.5 30.9641V14.2032C6.5 14.0596 6.52827 13.9616 6.56882 13.9061C6.5962 13.8687 6.65516 13.8125 6.83379 13.8125H15.4273C15.5998 13.8125 15.7398 13.6726 15.7398 13.5Z" fill="#141414"/>
<path fill-rule="evenodd" clip-rule="evenodd" d="M20.6875 2.8125C17.1475 2.8125 14.2778 5.68223 14.2778 9.22222C14.2778 12.7622 17.1475 15.6319 20.6875 15.6319C24.2275 15.6319 27.0972 12.7622 27.0972 9.22222C27.0972 5.68223 24.2275 2.8125 20.6875 2.8125ZM13.6528 9.22222C13.6528 5.33705 16.8023 2.1875 20.6875 2.1875C24.5727 2.1875 27.7222 5.33705 27.7222 9.22222C27.7222 13.1074 24.5727 16.2569 20.6875 16.2569C16.8023 16.2569 13.6528 13.1074 13.6528 9.22222Z" fill="#141414"/>
<path fill-rule="evenodd" clip-rule="evenodd" d="M24.6986 14.5593C24.7886 14.412 24.981 14.3656 25.1282 14.4556C27.4856 15.8962 31.3521 19.5729 31.3451 26.4661C31.345 26.6386 31.2049 26.7784 31.0323 26.7782C30.8597 26.7781 30.72 26.638 30.7201 26.4654C30.7268 19.8449 27.0257 16.3477 24.8023 14.9889C24.6551 14.8989 24.6086 14.7065 24.6986 14.5593Z" fill="#141414"/>
<path fill-rule="evenodd" clip-rule="evenodd" d="M16.6447 14.5926C16.7163 14.7496 16.6471 14.935 16.49 15.0066C14.0313 16.1279 12.2961 19.0215 11.3652 21.7946C10.9027 23.1722 10.6486 24.4923 10.6009 25.5036C10.5769 26.0109 10.6057 26.4256 10.6778 26.7258C10.7539 27.0426 10.8589 27.1552 10.9182 27.1846C13.0082 28.2193 16.9167 28.8903 20.8422 28.866C22.7985 28.8539 24.7433 28.669 26.4506 28.2769C28.1627 27.8837 29.6108 27.288 30.5968 26.4717C30.7298 26.3616 30.9268 26.3802 31.0368 26.5131C31.1469 26.6461 31.1283 26.843 30.9954 26.9531C29.9031 27.8574 28.3483 28.4824 26.5905 28.886C24.828 29.2908 22.8359 29.4786 20.846 29.491C16.8791 29.5155 12.8575 28.8421 10.6409 27.7447C10.3225 27.5871 10.1573 27.2348 10.0701 26.8719C9.97893 26.4924 9.95114 26.0128 9.97657 25.4742C10.0276 24.3938 10.2959 23.0161 10.7727 21.5957C11.7203 18.7727 13.531 15.6691 16.2307 14.4379C16.3877 14.3663 16.5731 14.4355 16.6447 14.5926Z" fill="#141414"/>
<path d="M25.8125 14.5C25.8125 13.8787 25.3088 13.375 24.6875 13.375C24.0662 13.375 23.5625 13.8787 23.5625 14.5C23.5625 15.1213 24.0662 15.625 24.6875 15.625C25.3088 15.625 25.8125 15.1213 25.8125 14.5Z" fill="#FFC60D"/>
<path fill-rule="evenodd" clip-rule="evenodd" d="M24.0312 14.5C24.0312 14.8624 24.3251 15.1563 24.6875 15.1563C25.0499 15.1563 25.3437 14.8624 25.3437 14.5C25.3437 14.1376 25.0499 13.8438 24.6875 13.8438C24.3251 13.8438 24.0312 14.1376 24.0312 14.5ZM24.6875 16.0938C23.8073 16.0938 23.0937 15.3802 23.0937 14.5C23.0937 13.6198 23.8073 12.9062 24.6875 12.9062C25.5677 12.9062 26.2812 13.6198 26.2812 14.5C26.2812 15.3802 25.5677 16.0938 24.6875 16.0938Z" fill="white"/>
<path fill-rule="evenodd" clip-rule="evenodd" d="M23.5 14.5C23.5 15.1558 24.0317 15.6875 24.6875 15.6875C25.3433 15.6875 25.875 15.1558 25.875 14.5C25.875 13.8442 25.3433 13.3125 24.6875 13.3125C24.0317 13.3125 23.5 13.8442 23.5 14.5ZM24.6875 16.3125C23.6865 16.3125 22.875 15.501 22.875 14.5C22.875 13.499 23.6865 12.6875 24.6875 12.6875C25.6885 12.6875 26.5 13.499 26.5 14.5C26.5 15.501 25.6885 16.3125 24.6875 16.3125Z" fill="white"/>
<path d="M17.8125 14.5C17.8125 13.8787 17.3088 13.375 16.6875 13.375C16.0662 13.375 15.5625 13.8787 15.5625 14.5C15.5625 15.1213 16.0662 15.625 16.6875 15.625C17.3088 15.625 17.8125 15.1213 17.8125 14.5Z" fill="#FFC60D"/>
<path fill-rule="evenodd" clip-rule="evenodd" d="M16.0312 14.5C16.0312 14.8624 16.3251 15.1563 16.6875 15.1563C17.0499 15.1563 17.3437 14.8624 17.3437 14.5C17.3437 14.1376 17.0499 13.8438 16.6875 13.8438C16.3251 13.8438 16.0312 14.1376 16.0312 14.5ZM16.6875 16.0938C15.8073 16.0938 15.0937 15.3802 15.0937 14.5C15.0937 13.6198 15.8073 12.9062 16.6875 12.9062C17.5677 12.9062 18.2812 13.6198 18.2812 14.5C18.2812 15.3802 17.5677 16.0938 16.6875 16.0938Z" fill="white"/>
<path fill-rule="evenodd" clip-rule="evenodd" d="M15.5 14.5C15.5 15.1558 16.0317 15.6875 16.6875 15.6875C17.3434 15.6875 17.875 15.1558 17.875 14.5C17.875 13.8442 17.3434 13.3125 16.6875 13.3125C16.0317 13.3125 15.5 13.8442 15.5 14.5ZM16.6875 16.3125C15.6865 16.3125 14.875 15.501 14.875 14.5C14.875 13.499 15.6865 12.6875 16.6875 12.6875C17.6885 12.6875 18.5 13.499 18.5 14.5C18.5 15.501 17.6885 16.3125 16.6875 16.3125Z" fill="white"/>
<path d="M7.31248 23C7.31248 22.3787 6.8088 21.875 6.18748 21.875C5.56616 21.875 5.06248 22.3787 5.06248 23C5.06248 23.6213 5.56616 24.125 6.18748 24.125C6.8088 24.125 7.31248 23.6213 7.31248 23Z" fill="#FFC60D"/>
<path fill-rule="evenodd" clip-rule="evenodd" d="M5.53123 23C5.53123 23.3624 5.82504 23.6563 6.18748 23.6563C6.54991 23.6563 6.84373 23.3624 6.84373 23C6.84373 22.6376 6.54991 22.3438 6.18748 22.3438C5.82504 22.3438 5.53123 22.6376 5.53123 23ZM6.18748 24.5938C5.30727 24.5938 4.59373 23.8802 4.59373 23C4.59373 22.1198 5.30727 21.4063 6.18748 21.4063C7.06768 21.4063 7.78123 22.1198 7.78123 23C7.78123 23.8802 7.06768 24.5938 6.18748 24.5938Z" fill="white"/>
<path fill-rule="evenodd" clip-rule="evenodd" d="M4.99999 23C4.99999 23.6558 5.53165 24.1875 6.18749 24.1875C6.84333 24.1875 7.37499 23.6558 7.37499 23C7.37499 22.3442 6.84333 21.8125 6.18749 21.8125C5.53165 21.8125 4.99999 22.3442 4.99999 23ZM6.18749 24.8125C5.18647 24.8125 4.37499 24.001 4.37499 23C4.37499 21.999 5.18647 21.1875 6.18749 21.1875C7.1885 21.1875 7.99999 21.999 7.99999 23C7.99999 24.001 7.1885 24.8125 6.18749 24.8125Z" fill="white"/>
<path d="M36.3125 23C36.3125 22.3787 35.8088 21.875 35.1875 21.875C34.5662 21.875 34.0625 22.3787 34.0625 23C34.0625 23.6213 34.5662 24.125 35.1875 24.125C35.8088 24.125 36.3125 23.6213 36.3125 23Z" fill="#FFC60D"/>
<path fill-rule="evenodd" clip-rule="evenodd" d="M34.5312 23C34.5312 23.3624 34.825 23.6563 35.1875 23.6563C35.5499 23.6563 35.8437 23.3624 35.8437 23C35.8437 22.6376 35.5499 22.3438 35.1875 22.3438C34.825 22.3438 34.5312 22.6376 34.5312 23ZM35.1875 24.5938C34.3073 24.5938 33.5937 23.8802 33.5937 23C33.5937 22.1198 34.3073 21.4063 35.1875 21.4063C36.0677 21.4063 36.7812 22.1198 36.7812 23C36.7812 23.8802 36.0677 24.5938 35.1875 24.5938Z" fill="white"/>
<path fill-rule="evenodd" clip-rule="evenodd" d="M34 23C34 23.6558 34.5317 24.1875 35.1875 24.1875C35.8433 24.1875 36.375 23.6558 36.375 23C36.375 22.3442 35.8433 21.8125 35.1875 21.8125C34.5317 21.8125 34 22.3442 34 23ZM35.1875 24.8125C34.1865 24.8125 33.375 24.001 33.375 23C33.375 21.999 34.1865 21.1875 35.1875 21.1875C36.1885 21.1875 37 21.999 37 23C37 24.001 36.1885 24.8125 35.1875 24.8125Z" fill="white"/>
<path d="M21.8125 35C21.8125 34.3787 21.3088 33.875 20.6875 33.875C20.0662 33.875 19.5625 34.3787 19.5625 35C19.5625 35.6213 20.0662 36.125 20.6875 36.125C21.3088 36.125 21.8125 35.6213 21.8125 35Z" fill="#FFC60D"/>
<path fill-rule="evenodd" clip-rule="evenodd" d="M20.0312 35C20.0312 35.3624 20.3251 35.6562 20.6875 35.6562C21.0499 35.6562 21.3437 35.3624 21.3437 35C21.3437 34.6376 21.0499 34.3438 20.6875 34.3438C20.3251 34.3438 20.0312 34.6376 20.0312 35ZM20.6875 36.5938C19.8073 36.5938 19.0937 35.8802 19.0937 35C19.0937 34.1198 19.8073 33.4062 20.6875 33.4062C21.5677 33.4062 22.2812 34.1198 22.2812 35C22.2812 35.8802 21.5677 36.5938 20.6875 36.5938Z" fill="white"/>
<path fill-rule="evenodd" clip-rule="evenodd" d="M19.5 35C19.5 35.6558 20.0317 36.1875 20.6875 36.1875C21.3433 36.1875 21.875 35.6558 21.875 35C21.875 34.3442 21.3433 33.8125 20.6875 33.8125C20.0317 33.8125 19.5 34.3442 19.5 35ZM20.6875 36.8125C19.6865 36.8125 18.875 36.001 18.875 35C18.875 33.999 19.6865 33.1875 20.6875 33.1875C21.6885 33.1875 22.5 33.999 22.5 35C22.5 36.001 21.6885 36.8125 20.6875 36.8125Z" fill="white"/>
</g>
<g clip-path="url(#clip1)">
<path d="M57.2875 19.4898H54.4875V23.7498H52.2675V10.0498H57.2875C60.3942 10.0498 61.9475 11.5831 61.9475 14.6498C61.9475 16.2231 61.5542 17.4231 60.7675 18.2498C59.9942 19.0765 58.8342 19.4898 57.2875 19.4898ZM54.4875 17.5698H57.2675C58.8675 17.5698 59.6675 16.5965 59.6675 14.6498C59.6675 13.7165 59.4742 13.0365 59.0875 12.6098C58.7008 12.1831 58.0942 11.9698 57.2675 11.9698H54.4875V17.5698Z" fill="#141414"/>
<path d="M63.8239 23.7498V13.7498H65.9839V14.9498C67.1172 14.2165 68.2506 13.7431 69.3839 13.5298V15.7098C68.2372 15.9365 67.2572 16.2298 66.4439 16.5898L66.0039 16.7698V23.7498H63.8239Z" fill="#141414"/>
<path d="M71.5123 14.8298C72.2057 13.9631 73.3523 13.5298 74.9523 13.5298C76.5523 13.5298 77.6923 13.9631 78.3723 14.8298C79.0657 15.6965 79.4123 16.9965 79.4123 18.7298C79.4123 20.4631 79.079 21.7698 78.4123 22.6498C77.7457 23.5298 76.5923 23.9698 74.9523 23.9698C73.3123 23.9698 72.159 23.5298 71.4923 22.6498C70.8257 21.7698 70.4923 20.4631 70.4923 18.7298C70.4923 16.9965 70.8323 15.6965 71.5123 14.8298ZM73.1523 21.3298C73.459 21.8631 74.059 22.1298 74.9523 22.1298C75.8457 22.1298 76.4457 21.8631 76.7523 21.3298C77.059 20.7965 77.2123 19.9231 77.2123 18.7098C77.2123 17.4965 77.0457 16.6365 76.7123 16.1298C76.3923 15.6231 75.8057 15.3698 74.9523 15.3698C74.099 15.3698 73.5057 15.6231 73.1723 16.1298C72.8523 16.6365 72.6923 17.4965 72.6923 18.7098C72.6923 19.9231 72.8457 20.7965 73.1523 21.3298Z" fill="#141414"/>
<path d="M80.4816 13.7498H82.7616L84.6816 21.8898H85.3216L87.3216 13.7498H89.5416L86.9416 23.7498H83.0616L80.4816 13.7498Z" fill="#141414"/>
<path d="M98.2095 21.9498L98.7695 21.8898L98.8095 23.5098C97.2895 23.8165 95.9429 23.9698 94.7695 23.9698C93.2895 23.9698 92.2229 23.5631 91.5695 22.7498C90.9295 21.9365 90.6095 20.6365 90.6095 18.8498C90.6095 15.3031 92.0562 13.5298 94.9495 13.5298C97.7495 13.5298 99.1495 15.0565 99.1495 18.1098L99.0095 19.6698H92.8095C92.8229 20.4965 93.0029 21.1031 93.3495 21.4898C93.6962 21.8765 94.3429 22.0698 95.2895 22.0698C96.2362 22.0698 97.2095 22.0298 98.2095 21.9498ZM97.0095 17.9898C97.0095 17.0031 96.8495 16.3165 96.5295 15.9298C96.2229 15.5298 95.6962 15.3298 94.9495 15.3298C94.2029 15.3298 93.6562 15.5365 93.3095 15.9498C92.9762 16.3631 92.8029 17.0431 92.7895 17.9898H97.0095Z" fill="#141414"/>
<path d="M54.0812 31.8127C54.5021 31.8127 54.7958 31.9335 54.9625 32.1752C55.1333 32.4127 55.2187 32.8314 55.2187 33.4314C55.2187 34.0314 55.1125 34.4544 54.9 34.7002C54.6917 34.9419 54.3062 35.0627 53.7437 35.0627C53.5687 35.0627 53.2792 35.046 52.875 35.0127L52.7 34.9939V30.5127H53.1625V32.0314C53.4792 31.8856 53.7854 31.8127 54.0812 31.8127ZM53.7375 34.6439C54.1458 34.6439 54.4146 34.5523 54.5437 34.3689C54.6771 34.1814 54.7437 33.8669 54.7437 33.4252C54.7437 32.9835 54.6917 32.6752 54.5875 32.5002C54.4833 32.321 54.2979 32.2314 54.0312 32.2314C53.7896 32.2314 53.5417 32.2773 53.2875 32.3689L53.1625 32.4127V34.6127C53.4333 34.6335 53.625 34.6439 53.7375 34.6439Z" fill="#808080"/>
<path d="M55.4536 31.8752H55.9224L56.7036 34.5939H56.9099L57.6974 31.8752H58.1661L56.8661 36.3877H56.3974L56.8036 35.0002H56.3411L55.4536 31.8752Z" fill="#808080"/>
<path d="M62.2294 35.0002H59.8481V30.6752H60.3294V34.5689H62.2294V35.0002Z" fill="#808080"/>
<path d="M64.6646 34.6127L64.8458 34.5939L64.8583 34.9627C64.3833 35.0294 63.9771 35.0627 63.6396 35.0627C63.1896 35.0627 62.8708 34.9335 62.6833 34.6752C62.4958 34.4127 62.4021 34.0064 62.4021 33.4564C62.4021 32.3606 62.8375 31.8127 63.7083 31.8127C64.1292 31.8127 64.4438 31.9314 64.6521 32.1689C64.8604 32.4023 64.9646 32.771 64.9646 33.2752L64.9396 33.6314H62.8771C62.8771 33.9773 62.9396 34.2335 63.0646 34.4002C63.1896 34.5669 63.4063 34.6502 63.7146 34.6502C64.0271 34.6502 64.3438 34.6377 64.6646 34.6127ZM64.4958 33.2564C64.4958 32.8731 64.4333 32.6023 64.3083 32.4439C64.1875 32.2856 63.9875 32.2064 63.7083 32.2064C63.4333 32.2064 63.225 32.2898 63.0833 32.4564C62.9458 32.6231 62.875 32.8898 62.8708 33.2564H64.4958Z" fill="#808080"/>
<path d="M67.9076 30.5127V35.0002H67.4451V34.7877C67.1243 34.971 66.8076 35.0627 66.4951 35.0627C66.3284 35.0627 66.1826 35.0419 66.0576 35.0002C65.9326 34.9585 65.8159 34.8835 65.7076 34.7752C65.4826 34.5502 65.3701 34.1356 65.3701 33.5314C65.3701 32.9231 65.4701 32.4856 65.6701 32.2189C65.8743 31.9481 66.2097 31.8127 66.6764 31.8127C66.918 31.8127 67.1743 31.8398 67.4451 31.8939V30.5127H67.9076ZM66.0701 34.4377C66.1368 34.5169 66.2076 34.571 66.2826 34.6002C66.3576 34.6294 66.4534 34.6439 66.5701 34.6439C66.6909 34.6439 66.8243 34.6252 66.9701 34.5877C67.1201 34.546 67.2368 34.5064 67.3201 34.4689L67.4451 34.4127V32.2939C67.1784 32.2439 66.9305 32.2189 66.7014 32.2189C66.3847 32.2189 66.1639 32.321 66.0389 32.5252C65.9139 32.7252 65.8514 33.0377 65.8514 33.4627C65.8514 33.946 65.9243 34.271 66.0701 34.4377Z" fill="#808080"/>
<path d="M69.8345 36.4689C69.3345 36.4689 68.9845 36.4002 68.7845 36.2627C68.5886 36.1294 68.4907 35.8835 68.4907 35.5252C68.4907 35.3544 68.5282 35.2148 68.6032 35.1064C68.6782 35.0023 68.8053 34.8835 68.9845 34.7502C68.8678 34.671 68.8095 34.5273 68.8095 34.3189C68.8095 34.2481 68.8616 34.1169 68.9657 33.9252L69.022 33.8252C68.6928 33.6752 68.5282 33.3606 68.5282 32.8814C68.5282 32.1689 68.9178 31.8127 69.697 31.8127C69.897 31.8127 70.0824 31.8335 70.2532 31.8752L70.347 31.8939L71.272 31.8689V32.2689L70.6782 32.2564C70.8157 32.3939 70.8845 32.6023 70.8845 32.8814C70.8845 33.2731 70.7866 33.5481 70.5907 33.7064C70.3991 33.8606 70.0949 33.9377 69.6782 33.9377C69.5657 33.9377 69.4636 33.9294 69.372 33.9127C69.297 34.096 69.2595 34.2148 69.2595 34.2689C69.2595 34.3981 69.2991 34.4794 69.3782 34.5127C69.4574 34.5419 69.697 34.5564 70.097 34.5564C70.497 34.5564 70.7845 34.6189 70.9595 34.7439C71.1345 34.8689 71.222 35.1127 71.222 35.4752C71.222 36.1377 70.7595 36.4689 69.8345 36.4689ZM68.9532 35.4877C68.9532 35.7085 69.0136 35.8606 69.1345 35.9439C69.2595 36.0314 69.4866 36.0752 69.8157 36.0752C70.1491 36.0752 70.3866 36.0294 70.5282 35.9377C70.6741 35.846 70.747 35.6919 70.747 35.4752C70.747 35.2627 70.6949 35.1252 70.5907 35.0627C70.4866 35.0002 70.2824 34.9689 69.9782 34.9689L69.3032 34.9377C69.1657 35.0377 69.072 35.1252 69.022 35.2002C68.9761 35.2752 68.9532 35.371 68.9532 35.4877ZM68.997 32.8814C68.997 33.1273 69.0511 33.3023 69.1595 33.4064C69.272 33.5106 69.4553 33.5627 69.7095 33.5627C69.9636 33.5627 70.1449 33.5106 70.2532 33.4064C70.3616 33.3023 70.4157 33.1273 70.4157 32.8814C70.4157 32.6314 70.3616 32.4544 70.2532 32.3502C70.1449 32.246 69.9636 32.1939 69.7095 32.1939C69.4553 32.1939 69.272 32.2481 69.1595 32.3564C69.0511 32.4606 68.997 32.6356 68.997 32.8814Z" fill="#808080"/>
<path d="M73.7762 34.6127L73.9574 34.5939L73.9699 34.9627C73.4949 35.0294 73.0887 35.0627 72.7512 35.0627C72.3012 35.0627 71.9824 34.9335 71.7949 34.6752C71.6074 34.4127 71.5137 34.0064 71.5137 33.4564C71.5137 32.3606 71.9491 31.8127 72.8199 31.8127C73.2407 31.8127 73.5553 31.9314 73.7637 32.1689C73.972 32.4023 74.0762 32.771 74.0762 33.2752L74.0512 33.6314H71.9887C71.9887 33.9773 72.0512 34.2335 72.1762 34.4002C72.3012 34.5669 72.5178 34.6502 72.8262 34.6502C73.1387 34.6502 73.4553 34.6377 73.7762 34.6127ZM73.6074 33.2564C73.6074 32.8731 73.5449 32.6023 73.4199 32.4439C73.2991 32.2856 73.0991 32.2064 72.8199 32.2064C72.5449 32.2064 72.3366 32.2898 72.1949 32.4564C72.0574 32.6231 71.9866 32.8898 71.9824 33.2564H73.6074Z" fill="#808080"/>
<path d="M74.6192 35.0002V31.8752H75.0817V32.3002C75.4442 32.0502 75.8254 31.8856 76.2254 31.8064V32.2814C76.0504 32.3148 75.8671 32.3669 75.6754 32.4377C75.4879 32.5085 75.3442 32.571 75.2442 32.6252L75.0879 32.7064V35.0002H74.6192Z" fill="#808080"/>
<path d="M80.2406 35.0002H77.8594V30.6752H78.3406V34.5689H80.2406V35.0002Z" fill="#808080"/>
<path d="M82.6758 34.6127L82.8571 34.5939L82.8696 34.9627C82.3946 35.0294 81.9883 35.0627 81.6508 35.0627C81.2008 35.0627 80.8821 34.9335 80.6946 34.6752C80.5071 34.4127 80.4133 34.0064 80.4133 33.4564C80.4133 32.3606 80.8487 31.8127 81.7196 31.8127C82.1404 31.8127 82.455 31.9314 82.6633 32.1689C82.8717 32.4023 82.9758 32.771 82.9758 33.2752L82.9508 33.6314H80.8883C80.8883 33.9773 80.9508 34.2335 81.0758 34.4002C81.2008 34.5669 81.4175 34.6502 81.7258 34.6502C82.0383 34.6502 82.355 34.6377 82.6758 34.6127ZM82.5071 33.2564C82.5071 32.8731 82.4446 32.6023 82.3196 32.4439C82.1987 32.2856 81.9987 32.2064 81.7196 32.2064C81.4446 32.2064 81.2362 32.2898 81.0946 32.4564C80.9571 32.6231 80.8862 32.8898 80.8821 33.2564H82.5071Z" fill="#808080"/>
<path d="M83.3813 33.4314C83.3813 32.8606 83.4834 32.4481 83.6876 32.1939C83.8918 31.9398 84.2355 31.8127 84.7188 31.8127C85.2063 31.8127 85.5501 31.9398 85.7501 32.1939C85.9543 32.4481 86.0563 32.8606 86.0563 33.4314C86.0563 34.0023 85.9605 34.4169 85.7688 34.6752C85.5772 34.9335 85.2272 35.0627 84.7188 35.0627C84.2105 35.0627 83.8605 34.9335 83.6688 34.6752C83.4772 34.4169 83.3813 34.0023 83.3813 33.4314ZM83.8626 33.4252C83.8626 33.8794 83.9168 34.1981 84.0251 34.3814C84.1376 34.5648 84.3688 34.6564 84.7188 34.6564C85.073 34.6564 85.3043 34.5669 85.4126 34.3877C85.5209 34.2044 85.5751 33.8835 85.5751 33.4252C85.5751 32.9669 85.5147 32.6523 85.3938 32.4814C85.273 32.3064 85.048 32.2189 84.7188 32.2189C84.3938 32.2189 84.1688 32.3064 84.0438 32.4814C83.923 32.6523 83.8626 32.9669 83.8626 33.4252Z" fill="#808080"/>
<path d="M86.6333 36.3877V31.8752H87.0958V32.1002C87.4125 31.9085 87.725 31.8127 88.0333 31.8127C88.4292 31.8127 88.7167 31.9398 88.8958 32.1939C89.075 32.4439 89.1646 32.8585 89.1646 33.4377C89.1646 34.0169 89.0583 34.4335 88.8458 34.6877C88.6375 34.9377 88.2896 35.0627 87.8021 35.0627C87.5479 35.0627 87.3146 35.0398 87.1021 34.9939V36.3877H86.6333ZM87.9646 32.2314C87.8396 32.2314 87.7042 32.2523 87.5583 32.2939C87.4167 32.3356 87.3042 32.3773 87.2208 32.4189L87.1021 32.4814V34.5877C87.3979 34.6335 87.6229 34.6564 87.7771 34.6564C88.1146 34.6564 88.35 34.5606 88.4833 34.3689C88.6208 34.1773 88.6896 33.8648 88.6896 33.4314C88.6896 32.9981 88.6271 32.6898 88.5021 32.5064C88.3813 32.3231 88.2021 32.2314 87.9646 32.2314Z" fill="#808080"/>
<path d="M91.948 32.8189V34.4189C91.9605 34.5731 92.0813 34.6648 92.3105 34.6939L92.2917 35.0627C91.9626 35.0627 91.7147 34.9794 91.548 34.8127C91.173 34.9794 90.798 35.0627 90.423 35.0627C90.1355 35.0627 89.9167 34.9814 89.7667 34.8189C89.6167 34.6564 89.5417 34.4231 89.5417 34.1189C89.5417 33.8148 89.6188 33.5919 89.773 33.4502C89.9272 33.3044 90.1688 33.2148 90.498 33.1814L91.4792 33.0877V32.8189C91.4792 32.6064 91.4334 32.4544 91.3417 32.3627C91.2501 32.271 91.1251 32.2252 90.9667 32.2252C90.6334 32.2252 90.2876 32.246 89.9292 32.2877L89.7355 32.3064L89.7167 31.9502C90.1751 31.8585 90.5813 31.8127 90.9355 31.8127C91.2897 31.8127 91.5459 31.8939 91.7042 32.0564C91.8667 32.2189 91.948 32.4731 91.948 32.8189ZM90.023 34.0939C90.023 34.4773 90.1813 34.6689 90.498 34.6689C90.7813 34.6689 91.0605 34.621 91.3355 34.5252L91.4792 34.4752V33.4439L90.5542 33.5314C90.3667 33.5481 90.2313 33.6023 90.148 33.6939C90.0647 33.7856 90.023 33.9189 90.023 34.0939Z" fill="#808080"/>
<path d="M92.6853 35.0002V31.8752H93.1478V32.3002C93.5103 32.0502 93.8916 31.8856 94.2916 31.8064V32.2814C94.1166 32.3148 93.9333 32.3669 93.7416 32.4377C93.5541 32.5085 93.4103 32.571 93.3103 32.6252L93.1541 32.7064V35.0002H92.6853Z" fill="#808080"/>
<path d="M96.9791 30.5127V35.0002H96.5166V34.7877C96.1958 34.971 95.8791 35.0627 95.5666 35.0627C95.4 35.0627 95.2541 35.0419 95.1291 35.0002C95.0041 34.9585 94.8875 34.8835 94.7791 34.7752C94.5541 34.5502 94.4416 34.1356 94.4416 33.5314C94.4416 32.9231 94.5416 32.4856 94.7416 32.2189C94.9458 31.9481 95.2812 31.8127 95.7479 31.8127C95.9896 31.8127 96.2458 31.8398 96.5166 31.8939V30.5127H96.9791ZM95.1416 34.4377C95.2083 34.5169 95.2791 34.571 95.3541 34.6002C95.4291 34.6294 95.525 34.6439 95.6416 34.6439C95.7625 34.6439 95.8958 34.6252 96.0416 34.5877C96.1916 34.546 96.3083 34.5064 96.3916 34.4689L96.5166 34.4127V32.2939C96.25 32.2439 96.0021 32.2189 95.7729 32.2189C95.4562 32.2189 95.2354 32.321 95.1104 32.5252C94.9854 32.7252 94.9229 33.0377 94.9229 33.4627C94.9229 33.946 94.9958 34.271 95.1416 34.4377Z" fill="#808080"/>
</g>
<defs>
<clipPath id="clip0">
<rect width="40" height="40" fill="white" transform="translate(0.6875)"/>
</clipPath>
<clipPath id="clip1">
<rect width="49.375" height="32.5" fill="white" transform="translate(50.6875 3.75)"/>
</clipPath>
</defs>
</svg>
