<svg width="16" height="16" viewBox="0 0 16 16" fill="none" xmlns="http://www.w3.org/2000/svg">
<path fill-rule="evenodd" clip-rule="evenodd" d="M0.666626 8.00016C0.666626 7.63197 0.965103 7.3335 1.33329 7.3335H11.3333C11.7015 7.3335 12 7.63197 12 8.00016C12 8.36835 11.7015 8.66683 11.3333 8.66683H1.33329C0.965103 8.66683 0.666626 8.36835 0.666626 8.00016Z" fill="#0D6EFD"/>
<path fill-rule="evenodd" clip-rule="evenodd" d="M5.13803 4.19526C5.39838 4.45561 5.39838 4.87772 5.13803 5.13807L2.2761 8L5.13803 10.8619C5.39838 11.1223 5.39838 11.5444 5.13803 11.8047C4.87768 12.0651 4.45557 12.0651 4.19522 11.8047L0.861888 8.4714C0.601539 8.21106 0.601539 7.78894 0.861888 7.5286L4.19522 4.19526C4.45557 3.93491 4.87768 3.93491 5.13803 4.19526Z" fill="#0D6EFD"/>
<path fill-rule="evenodd" clip-rule="evenodd" d="M6 0.666667C6 0.298477 6.29848 0 6.66667 0H14.6667C15.0349 0 15.3333 0.298477 15.3333 0.666667V15.3333C15.3333 15.7015 15.0349 16 14.6667 16H6.66667C6.29848 16 6 15.7015 6 15.3333C6 14.9651 6.29848 14.6667 6.66667 14.6667H14V1.33333H6.66667C6.29848 1.33333 6 1.03486 6 0.666667Z" fill="#0D6EFD"/>
</svg>
