<svg width="16" height="16" viewBox="0 0 16 16" fill="none" xmlns="http://www.w3.org/2000/svg">
<path fill-rule="evenodd" clip-rule="evenodd" d="M3.33333 0.666667C3.33333 0.298477 3.63181 0 4 0H12C12.3682 0 12.6667 0.298477 12.6667 0.666667V4C12.6667 4.36819 12.3682 4.66667 12 4.66667C11.6318 4.66667 11.3333 4.36819 11.3333 4V1.33333H4.66667V6C4.66667 6.36819 4.36819 6.66667 4 6.66667C3.63181 6.66667 3.33333 6.36819 3.33333 6V0.666667Z" fill="#808080"/>
<path fill-rule="evenodd" clip-rule="evenodd" d="M6 15.3332C6 14.965 6.29848 14.6665 6.66667 14.6665H9.33333C9.70152 14.6665 10 14.965 10 15.3332C10 15.7014 9.70152 15.9998 9.33333 15.9998H6.66667C6.29848 15.9998 6 15.7014 6 15.3332Z" fill="#808080"/>
<path fill-rule="evenodd" clip-rule="evenodd" d="M0 8.00016C0 7.63197 0.298477 7.3335 0.666667 7.3335H6.66667C7.03486 7.3335 7.33333 7.63197 7.33333 8.00016V15.3335C7.33333 15.7017 7.03486 16.0002 6.66667 16.0002H0.666667C0.298477 16.0002 0 15.7017 0 15.3335V8.00016ZM1.33333 8.66683V14.6668H6V8.66683H1.33333Z" fill="#808080"/>
<path fill-rule="evenodd" clip-rule="evenodd" d="M8.66667 6.00016C8.66667 5.63197 8.96514 5.3335 9.33333 5.3335H15.3333C15.7015 5.3335 16 5.63197 16 6.00016V15.3335C16 15.7017 15.7015 16.0002 15.3333 16.0002H9.33333C8.96514 16.0002 8.66667 15.7017 8.66667 15.3335V6.00016ZM10 6.66683V14.6668H14.6667V6.66683H10Z" fill="#808080"/>
<path fill-rule="evenodd" clip-rule="evenodd" d="M11.3333 8.66667C11.3333 8.29848 11.6318 8 12 8H12.6667C13.0349 8 13.3333 8.29848 13.3333 8.66667C13.3333 9.03486 13.0349 9.33333 12.6667 9.33333H12C11.6318 9.33333 11.3333 9.03486 11.3333 8.66667Z" fill="#808080"/>
<path fill-rule="evenodd" clip-rule="evenodd" d="M11.3333 10.6667C11.3333 10.2985 11.6318 10 12 10H12.6667C13.0349 10 13.3333 10.2985 13.3333 10.6667C13.3333 11.0349 13.0349 11.3333 12.6667 11.3333H12C11.6318 11.3333 11.3333 11.0349 11.3333 10.6667Z" fill="#808080"/>
<path fill-rule="evenodd" clip-rule="evenodd" d="M11.3333 12.6667C11.3333 12.2985 11.6318 12 12 12H12.6667C13.0349 12 13.3333 12.2985 13.3333 12.6667C13.3333 13.0349 13.0349 13.3333 12.6667 13.3333H12C11.6318 13.3333 11.3333 13.0349 11.3333 12.6667Z" fill="#808080"/>
<path fill-rule="evenodd" clip-rule="evenodd" d="M2.66667 12.6667C2.66667 12.2985 2.96514 12 3.33333 12H4C4.36819 12 4.66667 12.2985 4.66667 12.6667C4.66667 13.0349 4.36819 13.3333 4 13.3333H3.33333C2.96514 13.3333 2.66667 13.0349 2.66667 12.6667Z" fill="#808080"/>
<path fill-rule="evenodd" clip-rule="evenodd" d="M2.66667 10.6667C2.66667 10.2985 2.96514 10 3.33333 10H4C4.36819 10 4.66667 10.2985 4.66667 10.6667C4.66667 11.0349 4.36819 11.3333 4 11.3333H3.33333C2.96514 11.3333 2.66667 11.0349 2.66667 10.6667Z" fill="#808080"/>
</svg>
