<svg width="160" height="160" viewBox="0 0 160 160" fill="none" xmlns="http://www.w3.org/2000/svg">
<rect width="160" height="160" rx="8" fill="white"/>
<path d="M8 8H13.76V13.76H8V8ZM13.76 8H19.52V13.76H13.76V8ZM19.52 8H25.28V13.76H19.52V8ZM25.28 8H31.04V13.76H25.28V8ZM31.04 8H36.8V13.76H31.04V8ZM36.8 8H42.56V13.76H36.8V8ZM42.56 8H48.32V13.76H42.56V8ZM65.6 8H71.36V13.76H65.6V8ZM77.12 8H82.88V13.76H77.12V8ZM88.64 8H94.4V13.76H88.64V8ZM100.16 8H105.92V13.76H100.16V8ZM111.68 8H117.44V13.76H111.68V8ZM117.44 8H123.2V13.76H117.44V8ZM123.2 8H128.96V13.76H123.2V8ZM128.96 8H134.72V13.76H128.96V8ZM134.72 8H140.48V13.76H134.72V8ZM140.48 8H146.24V13.76H140.48V8ZM146.24 8H152V13.76H146.24V8ZM8 13.76H13.76V19.52H8V13.76ZM42.56 13.76H48.32V19.52H42.56V13.76ZM54.08 13.76H59.84V19.52H54.08V13.76ZM65.6 13.76H71.36V19.52H65.6V13.76ZM94.4 13.76H100.16V19.52H94.4V13.76ZM100.16 13.76H105.92V19.52H100.16V13.76ZM111.68 13.76H117.44V19.52H111.68V13.76ZM146.24 13.76H152V19.52H146.24V13.76ZM8 19.52H13.76V25.28H8V19.52ZM19.52 19.52H25.28V25.28H19.52V19.52ZM25.28 19.52H31.04V25.28H25.28V19.52ZM31.04 19.52H36.8V25.28H31.04V19.52ZM42.56 19.52H48.32V25.28H42.56V19.52ZM77.12 19.52H82.88V25.28H77.12V19.52ZM100.16 19.52H105.92V25.28H100.16V19.52ZM111.68 19.52H117.44V25.28H111.68V19.52ZM123.2 19.52H128.96V25.28H123.2V19.52ZM128.96 19.52H134.72V25.28H128.96V19.52ZM134.72 19.52H140.48V25.28H134.72V19.52ZM146.24 19.52H152V25.28H146.24V19.52ZM8 25.28H13.76V31.04H8V25.28ZM19.52 25.28H25.28V31.04H19.52V25.28ZM25.28 25.28H31.04V31.04H25.28V25.28ZM31.04 25.28H36.8V31.04H31.04V25.28ZM42.56 25.28H48.32V31.04H42.56V25.28ZM54.08 25.28H59.84V31.04H54.08V25.28ZM59.84 25.28H65.6V31.04H59.84V25.28ZM65.6 25.28H71.36V31.04H65.6V25.28ZM77.12 25.28H82.88V31.04H77.12V25.28ZM82.88 25.28H88.64V31.04H82.88V25.28ZM88.64 25.28H94.4V31.04H88.64V25.28ZM111.68 25.28H117.44V31.04H111.68V25.28ZM123.2 25.28H128.96V31.04H123.2V25.28ZM128.96 25.28H134.72V31.04H128.96V25.28ZM134.72 25.28H140.48V31.04H134.72V25.28ZM146.24 25.28H152V31.04H146.24V25.28ZM8 31.04H13.76V36.8H8V31.04ZM19.52 31.04H25.28V36.8H19.52V31.04ZM25.28 31.04H31.04V36.8H25.28V31.04ZM31.04 31.04H36.8V36.8H31.04V31.04ZM42.56 31.04H48.32V36.8H42.56V31.04ZM59.84 31.04H65.6V36.8H59.84V31.04ZM100.16 31.04H105.92V36.8H100.16V31.04ZM111.68 31.04H117.44V36.8H111.68V31.04ZM123.2 31.04H128.96V36.8H123.2V31.04ZM128.96 31.04H134.72V36.8H128.96V31.04ZM134.72 31.04H140.48V36.8H134.72V31.04ZM146.24 31.04H152V36.8H146.24V31.04ZM8 36.8H13.76V42.56H8V36.8ZM42.56 36.8H48.32V42.56H42.56V36.8ZM54.08 36.8H59.84V42.56H54.08V36.8ZM59.84 36.8H65.6V42.56H59.84V36.8ZM71.36 36.8H77.12V42.56H71.36V36.8ZM77.12 36.8H82.88V42.56H77.12V36.8ZM94.4 36.8H100.16V42.56H94.4V36.8ZM100.16 36.8H105.92V42.56H100.16V36.8ZM111.68 36.8H117.44V42.56H111.68V36.8ZM146.24 36.8H152V42.56H146.24V36.8ZM8 42.56H13.76V48.32H8V42.56ZM13.76 42.56H19.52V48.32H13.76V42.56ZM19.52 42.56H25.28V48.32H19.52V42.56ZM25.28 42.56H31.04V48.32H25.28V42.56ZM31.04 42.56H36.8V48.32H31.04V42.56ZM36.8 42.56H42.56V48.32H36.8V42.56ZM42.56 42.56H48.32V48.32H42.56V42.56ZM54.08 42.56H59.84V48.32H54.08V42.56ZM65.6 42.56H71.36V48.32H65.6V42.56ZM77.12 42.56H82.88V48.32H77.12V42.56ZM88.64 42.56H94.4V48.32H88.64V42.56ZM100.16 42.56H105.92V48.32H100.16V42.56ZM111.68 42.56H117.44V48.32H111.68V42.56ZM117.44 42.56H123.2V48.32H117.44V42.56ZM123.2 42.56H128.96V48.32H123.2V42.56ZM128.96 42.56H134.72V48.32H128.96V42.56ZM134.72 42.56H140.48V48.32H134.72V42.56ZM140.48 42.56H146.24V48.32H140.48V42.56ZM146.24 42.56H152V48.32H146.24V42.56ZM59.84 48.32H65.6V54.08H59.84V48.32ZM65.6 48.32H71.36V54.08H65.6V48.32ZM71.36 48.32H77.12V54.08H71.36V48.32ZM88.64 48.32H94.4V54.08H88.64V48.32ZM94.4 48.32H100.16V54.08H94.4V48.32ZM100.16 48.32H105.92V54.08H100.16V48.32ZM8 54.08H13.76V59.84H8V54.08ZM13.76 54.08H19.52V59.84H13.76V54.08ZM19.52 54.08H25.28V59.84H19.52V54.08ZM25.28 54.08H31.04V59.84H25.28V54.08ZM31.04 54.08H36.8V59.84H31.04V54.08ZM42.56 54.08H48.32V59.84H42.56V54.08ZM48.32 54.08H54.08V59.84H48.32V54.08ZM54.08 54.08H59.84V59.84H54.08V54.08ZM59.84 54.08H65.6V59.84H59.84V54.08ZM71.36 54.08H77.12V59.84H71.36V54.08ZM82.88 54.08H88.64V59.84H82.88V54.08ZM88.64 54.08H94.4V59.84H88.64V54.08ZM94.4 54.08H100.16V59.84H94.4V54.08ZM105.92 54.08H111.68V59.84H105.92V54.08ZM117.44 54.08H123.2V59.84H117.44V54.08ZM128.96 54.08H134.72V59.84H128.96V54.08ZM140.48 54.08H146.24V59.84H140.48V54.08ZM13.76 59.84H19.52V65.6H13.76V59.84ZM19.52 59.84H25.28V65.6H19.52V59.84ZM36.8 59.84H42.56V65.6H36.8V59.84ZM65.6 59.84H71.36V65.6H65.6V59.84ZM77.12 59.84H82.88V65.6H77.12V59.84ZM88.64 59.84H94.4V65.6H88.64V59.84ZM100.16 59.84H105.92V65.6H100.16V59.84ZM117.44 59.84H123.2V65.6H117.44V59.84ZM140.48 59.84H146.24V65.6H140.48V59.84ZM19.52 65.6H25.28V71.36H19.52V65.6ZM31.04 65.6H36.8V71.36H31.04V65.6ZM36.8 65.6H42.56V71.36H36.8V65.6ZM42.56 65.6H48.32V71.36H42.56V65.6ZM48.32 65.6H54.08V71.36H48.32V65.6ZM65.6 65.6H71.36V71.36H65.6V65.6ZM82.88 65.6H88.64V71.36H82.88V65.6ZM94.4 65.6H100.16V71.36H94.4V65.6ZM105.92 65.6H111.68V71.36H105.92V65.6ZM111.68 65.6H117.44V71.36H111.68V65.6ZM128.96 65.6H134.72V71.36H128.96V65.6ZM140.48 65.6H146.24V71.36H140.48V65.6ZM146.24 65.6H152V71.36H146.24V65.6ZM8 71.36H13.76V77.12H8V71.36ZM31.04 71.36H36.8V77.12H31.04V71.36ZM36.8 71.36H42.56V77.12H36.8V71.36ZM48.32 71.36H54.08V77.12H48.32V71.36ZM54.08 71.36H59.84V77.12H54.08V71.36ZM77.12 71.36H82.88V77.12H77.12V71.36ZM94.4 71.36H100.16V77.12H94.4V71.36ZM100.16 71.36H105.92V77.12H100.16V71.36ZM105.92 71.36H111.68V77.12H105.92V71.36ZM111.68 71.36H117.44V77.12H111.68V71.36ZM117.44 71.36H123.2V77.12H117.44V71.36ZM123.2 71.36H128.96V77.12H123.2V71.36ZM146.24 71.36H152V77.12H146.24V71.36ZM13.76 77.12H19.52V82.88H13.76V77.12ZM19.52 77.12H25.28V82.88H19.52V77.12ZM42.56 77.12H48.32V82.88H42.56V77.12ZM54.08 77.12H59.84V82.88H54.08V77.12ZM59.84 77.12H65.6V82.88H59.84V77.12ZM65.6 77.12H71.36V82.88H65.6V77.12ZM77.12 77.12H82.88V82.88H77.12V77.12ZM82.88 77.12H88.64V82.88H82.88V77.12ZM88.64 77.12H94.4V82.88H88.64V77.12ZM105.92 77.12H111.68V82.88H105.92V77.12ZM111.68 77.12H117.44V82.88H111.68V77.12ZM123.2 77.12H128.96V82.88H123.2V77.12ZM134.72 77.12H140.48V82.88H134.72V77.12ZM140.48 77.12H146.24V82.88H140.48V77.12ZM146.24 77.12H152V82.88H146.24V77.12ZM8 82.88H13.76V88.64H8V82.88ZM19.52 82.88H25.28V88.64H19.52V82.88ZM36.8 82.88H42.56V88.64H36.8V82.88ZM48.32 82.88H54.08V88.64H48.32V82.88ZM100.16 82.88H105.92V88.64H100.16V82.88ZM117.44 82.88H123.2V88.64H117.44V82.88ZM128.96 82.88H134.72V88.64H128.96V82.88ZM140.48 82.88H146.24V88.64H140.48V82.88ZM8 88.64H13.76V94.4H8V88.64ZM31.04 88.64H36.8V94.4H31.04V88.64ZM36.8 88.64H42.56V94.4H36.8V88.64ZM42.56 88.64H48.32V94.4H42.56V88.64ZM71.36 88.64H77.12V94.4H71.36V88.64ZM77.12 88.64H82.88V94.4H77.12V88.64ZM88.64 88.64H94.4V94.4H88.64V88.64ZM94.4 88.64H100.16V94.4H94.4V88.64ZM105.92 88.64H111.68V94.4H105.92V88.64ZM111.68 88.64H117.44V94.4H111.68V88.64ZM117.44 88.64H123.2V94.4H117.44V88.64ZM123.2 88.64H128.96V94.4H123.2V88.64ZM128.96 88.64H134.72V94.4H128.96V88.64ZM140.48 88.64H146.24V94.4H140.48V88.64ZM146.24 88.64H152V94.4H146.24V88.64ZM8 94.4H13.76V100.16H8V94.4ZM31.04 94.4H36.8V100.16H31.04V94.4ZM36.8 94.4H42.56V100.16H36.8V94.4ZM59.84 94.4H65.6V100.16H59.84V94.4ZM65.6 94.4H71.36V100.16H65.6V94.4ZM71.36 94.4H77.12V100.16H71.36V94.4ZM111.68 94.4H117.44V100.16H111.68V94.4ZM117.44 94.4H123.2V100.16H117.44V94.4ZM123.2 94.4H128.96V100.16H123.2V94.4ZM146.24 94.4H152V100.16H146.24V94.4ZM8 100.16H13.76V105.92H8V100.16ZM31.04 100.16H36.8V105.92H31.04V100.16ZM36.8 100.16H42.56V105.92H36.8V100.16ZM42.56 100.16H48.32V105.92H42.56V100.16ZM48.32 100.16H54.08V105.92H48.32V100.16ZM71.36 100.16H77.12V105.92H71.36V100.16ZM77.12 100.16H82.88V105.92H77.12V100.16ZM82.88 100.16H88.64V105.92H82.88V100.16ZM94.4 100.16H100.16V105.92H94.4V100.16ZM100.16 100.16H105.92V105.92H100.16V100.16ZM105.92 100.16H111.68V105.92H105.92V100.16ZM111.68 100.16H117.44V105.92H111.68V100.16ZM117.44 100.16H123.2V105.92H117.44V100.16ZM123.2 100.16H128.96V105.92H123.2V100.16ZM134.72 100.16H140.48V105.92H134.72V100.16ZM54.08 105.92H59.84V111.68H54.08V105.92ZM77.12 105.92H82.88V111.68H77.12V105.92ZM82.88 105.92H88.64V111.68H82.88V105.92ZM100.16 105.92H105.92V111.68H100.16V105.92ZM123.2 105.92H128.96V111.68H123.2V105.92ZM128.96 105.92H134.72V111.68H128.96V105.92ZM8 111.68H13.76V117.44H8V111.68ZM13.76 111.68H19.52V117.44H13.76V111.68ZM19.52 111.68H25.28V117.44H19.52V111.68ZM25.28 111.68H31.04V117.44H25.28V111.68ZM31.04 111.68H36.8V117.44H31.04V111.68ZM36.8 111.68H42.56V117.44H36.8V111.68ZM42.56 111.68H48.32V117.44H42.56V111.68ZM54.08 111.68H59.84V117.44H54.08V111.68ZM65.6 111.68H71.36V117.44H65.6V111.68ZM82.88 111.68H88.64V117.44H82.88V111.68ZM88.64 111.68H94.4V117.44H88.64V111.68ZM100.16 111.68H105.92V117.44H100.16V111.68ZM111.68 111.68H117.44V117.44H111.68V111.68ZM123.2 111.68H128.96V117.44H123.2V111.68ZM134.72 111.68H140.48V117.44H134.72V111.68ZM140.48 111.68H146.24V117.44H140.48V111.68ZM146.24 111.68H152V117.44H146.24V111.68ZM8 117.44H13.76V123.2H8V117.44ZM42.56 117.44H48.32V123.2H42.56V117.44ZM59.84 117.44H65.6V123.2H59.84V117.44ZM100.16 117.44H105.92V123.2H100.16V117.44ZM123.2 117.44H128.96V123.2H123.2V117.44ZM128.96 117.44H134.72V123.2H128.96V117.44ZM140.48 117.44H146.24V123.2H140.48V117.44ZM146.24 117.44H152V123.2H146.24V117.44ZM8 123.2H13.76V128.96H8V123.2ZM19.52 123.2H25.28V128.96H19.52V123.2ZM25.28 123.2H31.04V128.96H25.28V123.2ZM31.04 123.2H36.8V128.96H31.04V123.2ZM42.56 123.2H48.32V128.96H42.56V123.2ZM54.08 123.2H59.84V128.96H54.08V123.2ZM71.36 123.2H77.12V128.96H71.36V123.2ZM77.12 123.2H82.88V128.96H77.12V123.2ZM82.88 123.2H88.64V128.96H82.88V123.2ZM88.64 123.2H94.4V128.96H88.64V123.2ZM94.4 123.2H100.16V128.96H94.4V123.2ZM100.16 123.2H105.92V128.96H100.16V123.2ZM105.92 123.2H111.68V128.96H105.92V123.2ZM111.68 123.2H117.44V128.96H111.68V123.2ZM117.44 123.2H123.2V128.96H117.44V123.2ZM123.2 123.2H128.96V128.96H123.2V123.2ZM134.72 123.2H140.48V128.96H134.72V123.2ZM8 128.96H13.76V134.72H8V128.96ZM19.52 128.96H25.28V134.72H19.52V128.96ZM25.28 128.96H31.04V134.72H25.28V128.96ZM31.04 128.96H36.8V134.72H31.04V128.96ZM42.56 128.96H48.32V134.72H42.56V128.96ZM54.08 128.96H59.84V134.72H54.08V128.96ZM59.84 128.96H65.6V134.72H59.84V128.96ZM71.36 128.96H77.12V134.72H71.36V128.96ZM105.92 128.96H111.68V134.72H105.92V128.96ZM111.68 128.96H117.44V134.72H111.68V128.96ZM123.2 128.96H128.96V134.72H123.2V128.96ZM128.96 128.96H134.72V134.72H128.96V128.96ZM134.72 128.96H140.48V134.72H134.72V128.96ZM140.48 128.96H146.24V134.72H140.48V128.96ZM146.24 128.96H152V134.72H146.24V128.96ZM8 134.72H13.76V140.48H8V134.72ZM19.52 134.72H25.28V140.48H19.52V134.72ZM25.28 134.72H31.04V140.48H25.28V134.72ZM31.04 134.72H36.8V140.48H31.04V134.72ZM42.56 134.72H48.32V140.48H42.56V134.72ZM54.08 134.72H59.84V140.48H54.08V134.72ZM65.6 134.72H71.36V140.48H65.6V134.72ZM82.88 134.72H88.64V140.48H82.88V134.72ZM128.96 134.72H134.72V140.48H128.96V134.72ZM134.72 134.72H140.48V140.48H134.72V134.72ZM146.24 134.72H152V140.48H146.24V134.72ZM8 140.48H13.76V146.24H8V140.48ZM42.56 140.48H48.32V146.24H42.56V140.48ZM54.08 140.48H59.84V146.24H54.08V140.48ZM59.84 140.48H65.6V146.24H59.84V140.48ZM65.6 140.48H71.36V146.24H65.6V140.48ZM71.36 140.48H77.12V146.24H71.36V140.48ZM88.64 140.48H94.4V146.24H88.64V140.48ZM94.4 140.48H100.16V146.24H94.4V140.48ZM100.16 140.48H105.92V146.24H100.16V140.48ZM105.92 140.48H111.68V146.24H105.92V140.48ZM111.68 140.48H117.44V146.24H111.68V140.48ZM117.44 140.48H123.2V146.24H117.44V140.48ZM123.2 140.48H128.96V146.24H123.2V140.48ZM128.96 140.48H134.72V146.24H128.96V140.48ZM146.24 140.48H152V146.24H146.24V140.48ZM8 146.24H13.76V152H8V146.24ZM13.76 146.24H19.52V152H13.76V146.24ZM19.52 146.24H25.28V152H19.52V146.24ZM25.28 146.24H31.04V152H25.28V146.24ZM31.04 146.24H36.8V152H31.04V146.24ZM36.8 146.24H42.56V152H36.8V146.24ZM42.56 146.24H48.32V152H42.56V146.24ZM54.08 146.24H59.84V152H54.08V146.24ZM59.84 146.24H65.6V152H59.84V146.24ZM65.6 146.24H71.36V152H65.6V146.24ZM71.36 146.24H77.12V152H71.36V146.24ZM77.12 146.24H82.88V152H77.12V146.24ZM82.88 146.24H88.64V152H82.88V146.24ZM88.64 146.24H94.4V152H88.64V146.24ZM105.92 146.24H111.68V152H105.92V146.24ZM117.44 146.24H123.2V152H117.44V146.24ZM123.2 146.24H128.96V152H123.2V146.24ZM128.96 146.24H134.72V152H128.96V146.24ZM134.72 146.24H140.48V152H134.72V146.24ZM140.48 146.24H146.24V152H140.48V146.24ZM146.24 146.24H152V152H146.24V146.24Z" fill="#141414"/>
</svg>
