<svg width="16" height="16" viewBox="0 0 16 16" fill="none" xmlns="http://www.w3.org/2000/svg">
<path fill-rule="evenodd" clip-rule="evenodd" d="M7.99992 6.66683C7.26354 6.66683 6.66659 7.26378 6.66659 8.00016C6.66659 8.73654 7.26354 9.3335 7.99992 9.3335C8.7363 9.3335 9.33325 8.73654 9.33325 8.00016C9.33325 7.26378 8.7363 6.66683 7.99992 6.66683ZM5.33325 8.00016C5.33325 6.5274 6.52716 5.3335 7.99992 5.3335C9.47268 5.3335 10.6666 6.5274 10.6666 8.00016C10.6666 9.47292 9.47268 10.6668 7.99992 10.6668C6.52716 10.6668 5.33325 9.47292 5.33325 8.00016Z" fill="#0D6EFD"/>
<path fill-rule="evenodd" clip-rule="evenodd" d="M6.00512 0.583953C6.04683 0.250344 6.33043 0 6.66664 0H9.3333C9.66951 0 9.9531 0.250344 9.99482 0.583953L10.2255 2.42874C10.7582 2.64294 11.2574 2.93262 11.7077 3.28886L13.4248 2.56443C13.7346 2.43374 14.0932 2.55416 14.2613 2.84533L15.5946 5.15466C15.7627 5.4458 15.6878 5.81655 15.4197 6.0195L13.9371 7.14214C13.9783 7.4256 13.9994 7.71182 14 7.99863L13.3333 8L14 8.00137C13.9994 8.28818 13.9783 8.5744 13.9371 8.85786L15.4197 9.9805C15.6878 10.1834 15.7627 10.5542 15.5946 10.8453L14.2613 13.1547C14.0932 13.4458 13.7346 13.5663 13.4248 13.4356L11.7077 12.7111C11.2574 13.0674 10.7582 13.3571 10.2255 13.5713L9.99482 15.416C9.9531 15.7497 9.66951 16 9.3333 16H6.66664C6.33043 16 6.04683 15.7497 6.00512 15.416L5.77445 13.5713C5.24172 13.3571 4.74253 13.0674 4.29223 12.7111L2.57511 13.4356C2.26534 13.5663 1.90673 13.4458 1.73862 13.1547L0.405289 10.8453C0.237192 10.5542 0.312174 10.1834 0.580195 9.9805L2.06239 8.85821C1.9792 8.2891 1.9792 7.7109 2.06239 7.14179L0.580195 6.0195C0.312174 5.81655 0.237192 5.4458 0.405289 5.15466L1.73862 2.84533C1.90673 2.55416 2.26534 2.43374 2.57511 2.56443L4.29223 3.28886C4.74253 2.93262 5.24172 2.64294 5.77445 2.42874L6.00512 0.583953ZM12.6666 8C12.6658 7.66412 12.629 7.32929 12.5569 7.00125C12.501 6.74708 12.598 6.48361 12.8055 6.32651L14.1457 5.31173L13.4009 4.02167L11.8478 4.67691C11.6076 4.77825 11.3303 4.73026 11.1381 4.55408C10.6417 4.09901 10.0526 3.75698 9.41127 3.55156C9.16409 3.47238 8.98532 3.25694 8.95312 2.99938L8.7448 1.33333H7.25513L7.04682 2.99938C7.01461 3.25694 6.83585 3.47238 6.58866 3.55156C5.94735 3.75698 5.35819 4.09901 4.86181 4.55408C4.66963 4.73026 4.39238 4.77825 4.15216 4.67691L2.59905 4.02167L1.85421 5.31173L3.19441 6.32651C3.40228 6.4839 3.49931 6.74803 3.44277 7.00256C3.29685 7.65951 3.29685 8.34049 3.44277 8.99744C3.49931 9.25197 3.40228 9.5161 3.19441 9.6735L1.85421 10.6883L2.59905 11.9783L4.15216 11.3231C4.39238 11.2217 4.66963 11.2697 4.86181 11.4459C5.35819 11.901 5.94735 12.243 6.58866 12.4484C6.83585 12.5276 7.01461 12.7431 7.04682 13.0006L7.25513 14.6667H8.7448L8.95312 13.0006C8.98532 12.7431 9.16409 12.5276 9.41127 12.4484C10.0526 12.243 10.6417 11.901 11.1381 11.4459C11.3303 11.2697 11.6076 11.2217 11.8478 11.3231L13.4009 11.9783L14.1457 10.6883L12.8055 9.6735C12.598 9.51639 12.501 9.25292 12.5569 8.99875C12.629 8.67071 12.6658 8.33588 12.6666 8Z" fill="#0D6EFD"/>
</svg>
