<svg width="16" height="16" viewBox="0 0 16 16" fill="none" xmlns="http://www.w3.org/2000/svg">
<path fill-rule="evenodd" clip-rule="evenodd" d="M7.85538 0.0158753C7.95063 -0.00529177 8.04937 -0.00529177 8.14462 0.0158753L14.1446 1.34921C14.4496 1.41699 14.6667 1.68753 14.6667 2V8C14.6667 10.6493 12.9602 12.49 11.3903 13.6238C10.5963 14.1972 9.80666 14.6135 9.21758 14.8862C8.92213 15.023 8.67478 15.1248 8.49944 15.193C8.41172 15.2271 8.34184 15.2528 8.29279 15.2705C8.26825 15.2793 8.24891 15.2861 8.23513 15.2908L8.21867 15.2965L8.21365 15.2982L8.21132 15.299C8.21106 15.299 8.21082 15.2991 8 14.6667C7.78918 15.2991 7.78894 15.299 7.78868 15.299L7.78635 15.2982L7.78133 15.2965L7.76487 15.2908C7.75109 15.2861 7.73175 15.2793 7.70722 15.2705C7.65816 15.2528 7.58829 15.2271 7.50056 15.193C7.32522 15.1248 7.07787 15.023 6.78242 14.8862C6.19334 14.6135 5.40366 14.1972 4.60967 13.6238C3.0398 12.49 1.33333 10.6493 1.33333 8V2C1.33333 1.68753 1.55036 1.41699 1.85538 1.34921L7.85538 0.0158753ZM8 14.6667L7.78868 15.299C7.92553 15.3446 8.07448 15.3446 8.21132 15.299L8 14.6667ZM8 13.9566C8.0053 13.9545 8.0107 13.9524 8.01618 13.9503C8.16897 13.8909 8.39037 13.7999 8.65742 13.6763C9.19335 13.4282 9.90366 13.0528 10.6097 12.5429C12.0398 11.51 13.3333 10.0173 13.3333 8V2.53478L8 1.3496L2.66667 2.53478V8C2.66667 10.0173 3.9602 11.51 5.39033 12.5429C6.09634 13.0528 6.80666 13.4282 7.34258 13.6763C7.60963 13.7999 7.83103 13.8909 7.98382 13.9503C7.9893 13.9524 7.9947 13.9545 8 13.9566Z" fill="#808080"/>
<path fill-rule="evenodd" clip-rule="evenodd" d="M11.7672 4.16051C12.0467 4.40012 12.0791 4.82099 11.8395 5.10054L7.83951 9.76721C7.71866 9.9082 7.54448 9.99239 7.35892 9.99952C7.17336 10.0066 6.99324 9.93606 6.86193 9.80475L4.86193 7.80475C4.60158 7.5444 4.60158 7.12229 4.86193 6.86194C5.12228 6.60159 5.54439 6.60159 5.80474 6.86194L7.29568 8.35288L10.8272 4.23282C11.0668 3.95327 11.4876 3.92089 11.7672 4.16051Z" fill="#808080"/>
</svg>
