<svg width="16" height="16" viewBox="0 0 16 16" fill="none" xmlns="http://www.w3.org/2000/svg">
<path fill-rule="evenodd" clip-rule="evenodd" d="M0.666667 1.3335C1.03486 1.3335 1.33333 1.63197 1.33333 2.00016C1.33333 2.36864 1.63152 2.66683 2 2.66683H14C14.3682 2.66683 14.6667 2.96531 14.6667 3.3335V8.00016C14.6667 8.36835 14.3682 8.66683 14 8.66683C13.6318 8.66683 13.3333 8.36835 13.3333 8.00016V4.00016H2C1.76622 4.00016 1.54184 3.96009 1.33333 3.88643V13.3335C1.33333 14.07 1.93019 14.6668 2.66667 14.6668H13.3333V10.6668C13.3333 10.2986 13.6318 10.0002 14 10.0002C14.3682 10.0002 14.6667 10.2986 14.6667 10.6668V15.3335C14.6667 15.7017 14.3682 16.0002 14 16.0002H2.66667C1.19381 16.0002 0 14.8064 0 13.3335V2.00016C0 1.63197 0.298477 1.3335 0.666667 1.3335Z" fill="#808080"/>
<path fill-rule="evenodd" clip-rule="evenodd" d="M0 2C0 0.895144 0.895144 0 2 0H11.3333C11.7015 0 12 0.298477 12 0.666667V1.33333C12 1.70152 11.7015 2 11.3333 2C10.9651 2 10.6667 1.70152 10.6667 1.33333H2C1.63152 1.33333 1.33333 1.63152 1.33333 2C1.33333 2.36848 1.63152 2.66667 2 2.66667C2.36819 2.66667 2.66667 2.96514 2.66667 3.33333C2.66667 3.70152 2.36819 4 2 4C0.895144 4 0 3.10486 0 2Z" fill="#808080"/>
<path fill-rule="evenodd" clip-rule="evenodd" d="M12 8.66683C11.6315 8.66683 11.3333 8.96502 11.3333 9.3335C11.3333 9.70197 11.6315 10.0002 12 10.0002H14.6667V8.66683H12ZM10 9.3335C10 8.22864 10.8951 7.3335 12 7.3335H15.3333C15.7015 7.3335 16 7.63197 16 8.00016V10.6668C16 11.035 15.7015 11.3335 15.3333 11.3335H12C10.8951 11.3335 10 10.4384 10 9.3335Z" fill="#808080"/>
</svg>
